<mxfile host="app.diagrams.net" modified="2023-05-14T12:02:17.529Z" agent="Mozilla/5.0 (Windows NT 10.0; Win64; x64) AppleWebKit/537.36 (KHTML, like Gecko) Chrome/113.0.0.0 Safari/537.36" etag="C_3PhvWUPpiboWh8v--T" version="21.3.0" type="device" pages="3">
  <diagram name="asnParser" id="6Qq-rBWojxR6-zRFoPn7">
    <mxGraphModel dx="2736" dy="998" grid="1" gridSize="10" guides="1" tooltips="1" connect="1" arrows="1" fold="1" page="1" pageScale="1" pageWidth="827" pageHeight="1169" math="0" shadow="0">
      <root>
        <mxCell id="0" />
        <mxCell id="1" parent="0" />
        <mxCell id="IFrq3-BLiu0b8xo9fZa--9" value="asnParser" style="swimlane;fontStyle=1;align=center;verticalAlign=top;childLayout=stackLayout;horizontal=1;startSize=26;horizontalStack=0;resizeParent=1;resizeParentMax=0;resizeLast=0;collapsible=1;marginBottom=0;whiteSpace=wrap;html=1;" parent="1" vertex="1">
          <mxGeometry x="280" y="30" width="550" height="890" as="geometry" />
        </mxCell>
        <mxCell id="IFrq3-BLiu0b8xo9fZa--10" value="&lt;div&gt;Filename: str&lt;/div&gt;&lt;div&gt;Typename: str&lt;/div&gt;&lt;div&gt;&lt;div&gt;AST_Lookup = Dict[Typename, AsnNode]&lt;/div&gt;&lt;div&gt;AST_TypenamesOfFile = Dict[Filename, List[str]]&amp;nbsp;&amp;nbsp;&lt;/div&gt;&lt;div&gt;AST_TypesOfFile = Dict[Filename, List[AsnNode]]&amp;nbsp;&amp;nbsp;&lt;/div&gt;&lt;div&gt;AST_Leaftypes = Dict[Typename, str]&lt;/div&gt;&lt;div&gt;AST_Modules = Dict[str, List[Typename]]&amp;nbsp;&amp;nbsp;&lt;/div&gt;&lt;div&gt;&lt;br&gt;&lt;/div&gt;&lt;div&gt;g_names :&amp;nbsp; Dict[Typename, AsnNode]&amp;nbsp; &amp;nbsp; &amp;nbsp; &amp;nbsp;&amp;nbsp;&lt;/div&gt;&lt;div&gt;g_typesOfFile : Dict[Filename, List[str]]&amp;nbsp; &amp;nbsp;&lt;/div&gt;&lt;div&gt;g_leafTypeDict : Dict[Typename, str]&amp;nbsp;&lt;/div&gt;&lt;div&gt;g_astOfFile: Dict[Filename, List[AsnNode]]&lt;/div&gt;&lt;div&gt;g_modules : Dict[str, List[Typename]]&amp;nbsp; &amp;nbsp;&amp;nbsp;&lt;/div&gt;&lt;div&gt;&lt;br&gt;&lt;/div&gt;&lt;div&gt;g_checkedSoFarForKeywords: Dict[str,int]&amp;nbsp; &amp;nbsp;&amp;nbsp;&lt;/div&gt;&lt;div&gt;g_invalidKeywords : List[str]&lt;/div&gt;&lt;div&gt;tokens: List[str]&lt;/div&gt;&lt;div&gt;reserved: reserved: Dict[str, str]&lt;/div&gt;&lt;/div&gt;&lt;div&gt;&lt;div&gt;W: Union ( AsnSequence, AsnSet, AsnChoice))&lt;/div&gt;&lt;div&gt;U:&amp;nbsp; Union (int,float)&lt;/div&gt;&lt;/div&gt;&lt;div&gt;Action = Callable[[Element], Any]&lt;br&gt;&lt;/div&gt;&lt;div&gt;&lt;div&gt;g_xmlASTrootNode: Element&lt;/div&gt;&lt;div&gt;g_lineno: int&lt;/div&gt;&lt;/div&gt;" style="text;strokeColor=none;fillColor=none;align=left;verticalAlign=top;spacingLeft=4;spacingRight=4;overflow=hidden;rotatable=0;points=[[0,0.5],[1,0.5]];portConstraint=eastwest;whiteSpace=wrap;html=1;" parent="IFrq3-BLiu0b8xo9fZa--9" vertex="1">
          <mxGeometry y="26" width="550" height="354" as="geometry" />
        </mxCell>
        <mxCell id="IFrq3-BLiu0b8xo9fZa--11" value="" style="line;strokeWidth=1;fillColor=none;align=left;verticalAlign=middle;spacingTop=-1;spacingLeft=3;spacingRight=3;rotatable=0;labelPosition=right;points=[];portConstraint=eastwest;strokeColor=inherit;" parent="IFrq3-BLiu0b8xo9fZa--9" vertex="1">
          <mxGeometry y="380" width="550" height="8" as="geometry" />
        </mxCell>
        <mxCell id="IFrq3-BLiu0b8xo9fZa--12" value="+ asnParseList(List(str)): void&lt;br&gt;+&amp;nbsp;ParseASN1SCC_AST(str): void&lt;br&gt;+ VisitAll( Element,&amp;nbsp; str,&amp;nbsp; Action) : List[Any]&lt;br&gt;&lt;div&gt;+ VisitAsn1Module(Element, Element,&amp;nbsp; List[Module]): void&lt;/div&gt;&lt;div&gt;&lt;div&gt;+ VisitTypeAssignment( Module,&amp;nbsp; Element): Tuple[str, AsnNode]&lt;/div&gt;&lt;/div&gt;&lt;div&gt;+ GenericFactory(Module,&amp;nbsp; Element): AsnNode&lt;/div&gt;+ GetAttr( Element,&amp;nbsp; str): Optional[Any]&lt;div&gt;+ GetChild( Element,&amp;nbsp; str): Optional[Element]&lt;/div&gt;&lt;div&gt;&lt;div&gt;+ CleanNameForAST(str): str&lt;/div&gt;&lt;/div&gt;&lt;div&gt;+ getIntOrFloatOrNone(str): Union[int, float, None]&lt;br&gt;&lt;/div&gt;&lt;div&gt;+ GetRange(Module, int,&amp;nbsp; Element,&amp;nbsp; Type[U]): Tuple[U, U]&lt;br&gt;&lt;/div&gt;&lt;div&gt;&lt;div&gt;+ VerifyAndFixAST(): Dict[str, str]&lt;/div&gt;&lt;div&gt;+ KnownType(AsnNode,&amp;nbsp;AST_Lookup&lt;span style=&quot;background-color: initial;&quot;&gt;): bool&lt;/span&gt;&lt;/div&gt;&lt;div&gt;+ IsInvalidType(str): bool&lt;/div&gt;&lt;div&gt;+ CheckForInvalidKeywords(Union[str, AsnNode]): void&lt;/div&gt;&lt;div&gt;&lt;br&gt;&lt;/div&gt;&lt;div&gt;+ getIntOrFloatOrNone(str): Union[int, float, None]&lt;/div&gt;&lt;div&gt;+ CreateBoolean(Module, int, Any): AsnBool&lt;/div&gt;&lt;div&gt;&lt;br&gt;&lt;/div&gt;&lt;div&gt;+ CreateInteger(Module, int, Element ): AsnInt&lt;/div&gt;&lt;div&gt;+ CreateReal(Module, int, Element ): AsnReal&lt;/div&gt;&lt;div&gt;+ CreateEnumerated(Module, int, Element ): AsnEnumerated&lt;/div&gt;&lt;div&gt;+ CreateOctetString(Module, int, Element ): AsnOctetString&lt;/div&gt;&lt;div&gt;+ CreateIA5String(Module, int, Element ): AsnAsciiString&lt;/div&gt;&lt;div&gt;+ CreateNumericString(Module, int, Element ): AsnOctetString&lt;/div&gt;&lt;div&gt;+ CreateReference(Module, int, Element ): AsnMetaType&lt;/div&gt;&lt;div&gt;&lt;br&gt;&lt;/div&gt;&lt;div&gt;+ CommonSetSeqOf(Module,int Element, Type[V]): V&lt;/div&gt;&lt;div&gt;+ CreateSequenceOf(Module, int, Element ): AsnSequenceOf&lt;/div&gt;&lt;div&gt;+ CreateSetOf(Module, int, Element ): AsnSetOf&lt;/div&gt;&lt;div&gt;+ CommonSeqSetChoice( Module, int, Element, Type[W], str): W&lt;/div&gt;&lt;div&gt;+ CreateSequence(Module, int, Element ): AsnSequence&lt;/div&gt;&lt;div&gt;+ CreateSet(Module, int, Element ):&amp;nbsp; AsnSet&lt;/div&gt;&lt;div&gt;+ CreateChoice(Module, int, Element ): AsnChoice&lt;/div&gt;&lt;/div&gt;&lt;div&gt;&lt;br&gt;&lt;/div&gt;&lt;div&gt;&lt;br&gt;&lt;/div&gt;&lt;div&gt;&lt;br&gt;&lt;/div&gt;" style="text;strokeColor=none;fillColor=none;align=left;verticalAlign=top;spacingLeft=4;spacingRight=4;overflow=hidden;rotatable=0;points=[[0,0.5],[1,0.5]];portConstraint=eastwest;whiteSpace=wrap;html=1;" parent="IFrq3-BLiu0b8xo9fZa--9" vertex="1">
          <mxGeometry y="388" width="550" height="502" as="geometry" />
        </mxCell>
        <mxCell id="IFrq3-BLiu0b8xo9fZa--14" value="Element" style="swimlane;fontStyle=1;align=center;verticalAlign=top;childLayout=stackLayout;horizontal=1;startSize=26;horizontalStack=0;resizeParent=1;resizeParentMax=0;resizeLast=0;collapsible=1;marginBottom=0;whiteSpace=wrap;html=1;" parent="1" vertex="1">
          <mxGeometry x="-170" y="420" width="310" height="140" as="geometry" />
        </mxCell>
        <mxCell id="IFrq3-BLiu0b8xo9fZa--15" value="name: str&lt;br&gt;filesSelected: List[str]&lt;br&gt;children: List[Element]" style="text;strokeColor=none;fillColor=none;align=left;verticalAlign=top;spacingLeft=4;spacingRight=4;overflow=hidden;rotatable=0;points=[[0,0.5],[1,0.5]];portConstraint=eastwest;whiteSpace=wrap;html=1;" parent="IFrq3-BLiu0b8xo9fZa--14" vertex="1">
          <mxGeometry y="26" width="310" height="64" as="geometry" />
        </mxCell>
        <mxCell id="IFrq3-BLiu0b8xo9fZa--16" value="" style="line;strokeWidth=1;fillColor=none;align=left;verticalAlign=middle;spacingTop=-1;spacingLeft=3;spacingRight=3;rotatable=0;labelPosition=right;points=[];portConstraint=eastwest;strokeColor=inherit;" parent="IFrq3-BLiu0b8xo9fZa--14" vertex="1">
          <mxGeometry y="90" width="310" height="8" as="geometry" />
        </mxCell>
        <mxCell id="IFrq3-BLiu0b8xo9fZa--17" value="+&amp;nbsp;__init__(self, str,&amp;nbsp; Dict[str, Any]): void" style="text;strokeColor=none;fillColor=none;align=left;verticalAlign=top;spacingLeft=4;spacingRight=4;overflow=hidden;rotatable=0;points=[[0,0.5],[1,0.5]];portConstraint=eastwest;whiteSpace=wrap;html=1;" parent="IFrq3-BLiu0b8xo9fZa--14" vertex="1">
          <mxGeometry y="98" width="310" height="42" as="geometry" />
        </mxCell>
        <mxCell id="IFrq3-BLiu0b8xo9fZa--23" value="InputFormatXMLHandler" style="swimlane;fontStyle=1;align=center;verticalAlign=top;childLayout=stackLayout;horizontal=1;startSize=26;horizontalStack=0;resizeParent=1;resizeParentMax=0;resizeLast=0;collapsible=1;marginBottom=0;whiteSpace=wrap;html=1;" parent="1" vertex="1">
          <mxGeometry x="-190" y="780" width="320" height="124" as="geometry" />
        </mxCell>
        <mxCell id="IFrq3-BLiu0b8xo9fZa--24" value="root: Element&lt;br&gt;roots: List[Element]" style="text;strokeColor=none;fillColor=none;align=left;verticalAlign=top;spacingLeft=4;spacingRight=4;overflow=hidden;rotatable=0;points=[[0,0.5],[1,0.5]];portConstraint=eastwest;whiteSpace=wrap;html=1;" parent="IFrq3-BLiu0b8xo9fZa--23" vertex="1">
          <mxGeometry y="26" width="320" height="28" as="geometry" />
        </mxCell>
        <mxCell id="IFrq3-BLiu0b8xo9fZa--25" value="" style="line;strokeWidth=1;fillColor=none;align=left;verticalAlign=middle;spacingTop=-1;spacingLeft=3;spacingRight=3;rotatable=0;labelPosition=right;points=[];portConstraint=eastwest;strokeColor=inherit;" parent="IFrq3-BLiu0b8xo9fZa--23" vertex="1">
          <mxGeometry y="54" width="320" height="8" as="geometry" />
        </mxCell>
        <mxCell id="IFrq3-BLiu0b8xo9fZa--26" value="&lt;div style=&quot;border-color: var(--border-color);&quot;&gt;&amp;nbsp;+ __init__(self): void&lt;/div&gt;&lt;div style=&quot;border-color: var(--border-color);&quot;&gt;&amp;nbsp;+ startElement(self,&amp;nbsp; str,&amp;nbsp; Dict[str, Any]): void&lt;/div&gt;&lt;div style=&quot;border-color: var(--border-color);&quot;&gt;&amp;nbsp;+ endElement(self, Any): void&lt;/div&gt;" style="text;strokeColor=none;fillColor=none;align=left;verticalAlign=top;spacingLeft=4;spacingRight=4;overflow=hidden;rotatable=0;points=[[0,0.5],[1,0.5]];portConstraint=eastwest;whiteSpace=wrap;html=1;" parent="IFrq3-BLiu0b8xo9fZa--23" vertex="1">
          <mxGeometry y="62" width="320" height="62" as="geometry" />
        </mxCell>
        <mxCell id="IFrq3-BLiu0b8xo9fZa--27" value="Pretty" style="swimlane;fontStyle=1;align=center;verticalAlign=top;childLayout=stackLayout;horizontal=1;startSize=26;horizontalStack=0;resizeParent=1;resizeParentMax=0;resizeLast=0;collapsible=1;marginBottom=0;whiteSpace=wrap;html=1;" parent="1" vertex="1">
          <mxGeometry x="230" y="1290" width="320" height="80" as="geometry" />
        </mxCell>
        <mxCell id="IFrq3-BLiu0b8xo9fZa--28" value="result: str&lt;br&gt;" style="text;strokeColor=none;fillColor=none;align=left;verticalAlign=top;spacingLeft=4;spacingRight=4;overflow=hidden;rotatable=0;points=[[0,0.5],[1,0.5]];portConstraint=eastwest;whiteSpace=wrap;html=1;" parent="IFrq3-BLiu0b8xo9fZa--27" vertex="1">
          <mxGeometry y="26" width="320" height="24" as="geometry" />
        </mxCell>
        <mxCell id="IFrq3-BLiu0b8xo9fZa--29" value="" style="line;strokeWidth=1;fillColor=none;align=left;verticalAlign=middle;spacingTop=-1;spacingLeft=3;spacingRight=3;rotatable=0;labelPosition=right;points=[];portConstraint=eastwest;strokeColor=inherit;" parent="IFrq3-BLiu0b8xo9fZa--27" vertex="1">
          <mxGeometry y="50" width="320" height="8" as="geometry" />
        </mxCell>
        <mxCell id="IFrq3-BLiu0b8xo9fZa--30" value="&lt;div style=&quot;border-color: var(--border-color);&quot;&gt;&amp;nbsp;+ __init__(self): str&lt;/div&gt;&lt;div style=&quot;border-color: var(--border-color);&quot;&gt;&amp;nbsp;&lt;/div&gt;" style="text;strokeColor=none;fillColor=none;align=left;verticalAlign=top;spacingLeft=4;spacingRight=4;overflow=hidden;rotatable=0;points=[[0,0.5],[1,0.5]];portConstraint=eastwest;whiteSpace=wrap;html=1;" parent="IFrq3-BLiu0b8xo9fZa--27" vertex="1">
          <mxGeometry y="58" width="320" height="22" as="geometry" />
        </mxCell>
        <mxCell id="IFrq3-BLiu0b8xo9fZa--36" value="" style="endArrow=open;html=1;endSize=12;startArrow=diamondThin;startSize=14;startFill=1;edgeStyle=orthogonalEdgeStyle;align=left;verticalAlign=bottom;rounded=0;exitX=0.5;exitY=1;exitDx=0;exitDy=0;entryX=0.5;entryY=0;entryDx=0;entryDy=0;" parent="1" source="IFrq3-BLiu0b8xo9fZa--31" target="IFrq3-BLiu0b8xo9fZa--27" edge="1">
          <mxGeometry x="-1" y="440" relative="1" as="geometry">
            <mxPoint x="440" y="930" as="sourcePoint" />
            <mxPoint x="440" y="1090" as="targetPoint" />
            <mxPoint x="30" y="160" as="offset" />
          </mxGeometry>
        </mxCell>
        <mxCell id="IFrq3-BLiu0b8xo9fZa--31" value="Module" style="swimlane;fontStyle=1;align=center;verticalAlign=top;childLayout=stackLayout;horizontal=1;startSize=26;horizontalStack=0;resizeParent=1;resizeParentMax=0;resizeLast=0;collapsible=1;marginBottom=0;whiteSpace=wrap;html=1;" parent="1" vertex="1">
          <mxGeometry x="370" y="1090" width="320" height="150" as="geometry" />
        </mxCell>
        <mxCell id="IFrq3-BLiu0b8xo9fZa--32" value="&lt;div&gt;&amp;nbsp; &amp;nbsp; _id: str&amp;nbsp; &amp;nbsp; &amp;nbsp; &amp;nbsp; &amp;nbsp; &amp;nbsp; &amp;nbsp; &amp;nbsp; &amp;nbsp;&lt;/div&gt;&lt;div&gt;&amp;nbsp; &amp;nbsp; _asnFilename: str&amp;nbsp; &amp;nbsp; &amp;nbsp; &amp;nbsp;&amp;nbsp;&lt;/div&gt;&lt;div&gt;&amp;nbsp; &amp;nbsp; _exportedTypes: List[str]&amp;nbsp; &amp;nbsp; &amp;nbsp;&lt;/div&gt;&lt;div&gt;&amp;nbsp; &amp;nbsp; _exportedVariables: List[str]&amp;nbsp;&lt;/div&gt;&lt;div&gt;&amp;nbsp; &amp;nbsp; _importedModules: List[Tuple[str, List[str], List[str]]]&amp;nbsp; &amp;nbsp;&amp;nbsp;&lt;/div&gt;&lt;div&gt;&amp;nbsp; &amp;nbsp; _typeAssignments: List[Tuple[str, AsnNode]]&lt;/div&gt;" style="text;strokeColor=none;fillColor=none;align=left;verticalAlign=top;spacingLeft=4;spacingRight=4;overflow=hidden;rotatable=0;points=[[0,0.5],[1,0.5]];portConstraint=eastwest;whiteSpace=wrap;html=1;" parent="IFrq3-BLiu0b8xo9fZa--31" vertex="1">
          <mxGeometry y="26" width="320" height="104" as="geometry" />
        </mxCell>
        <mxCell id="IFrq3-BLiu0b8xo9fZa--33" value="" style="line;strokeWidth=1;fillColor=none;align=left;verticalAlign=middle;spacingTop=-1;spacingLeft=3;spacingRight=3;rotatable=0;labelPosition=right;points=[];portConstraint=eastwest;strokeColor=inherit;" parent="IFrq3-BLiu0b8xo9fZa--31" vertex="1">
          <mxGeometry y="130" width="320" height="20" as="geometry" />
        </mxCell>
        <mxCell id="IFrq3-BLiu0b8xo9fZa--38" value="" style="endArrow=open;html=1;endSize=12;startArrow=diamondThin;startSize=14;startFill=1;edgeStyle=orthogonalEdgeStyle;align=left;verticalAlign=bottom;rounded=0;entryX=0.5;entryY=0;entryDx=0;entryDy=0;exitX=0.454;exitY=0.999;exitDx=0;exitDy=0;exitPerimeter=0;" parent="1" source="IFrq3-BLiu0b8xo9fZa--12" target="IFrq3-BLiu0b8xo9fZa--31" edge="1">
          <mxGeometry x="-1" y="440" relative="1" as="geometry">
            <mxPoint x="550" y="990" as="sourcePoint" />
            <mxPoint x="449.62" y="840" as="targetPoint" />
            <mxPoint x="30" y="160" as="offset" />
          </mxGeometry>
        </mxCell>
        <mxCell id="IFrq3-BLiu0b8xo9fZa--41" value="" style="endArrow=open;html=1;endSize=12;startArrow=diamondThin;startSize=14;startFill=1;edgeStyle=orthogonalEdgeStyle;align=left;verticalAlign=bottom;rounded=0;entryX=0.75;entryY=0;entryDx=0;entryDy=0;" parent="1" target="IFrq3-BLiu0b8xo9fZa--23" edge="1">
          <mxGeometry x="0.5455" y="70" relative="1" as="geometry">
            <mxPoint y="570" as="sourcePoint" />
            <mxPoint x="470" y="560" as="targetPoint" />
            <mxPoint x="-70" y="-70" as="offset" />
          </mxGeometry>
        </mxCell>
        <mxCell id="IFrq3-BLiu0b8xo9fZa--42" value="" style="endArrow=open;html=1;endSize=12;startArrow=diamondThin;startSize=14;startFill=0;edgeStyle=orthogonalEdgeStyle;align=left;verticalAlign=bottom;rounded=0;exitX=-0.002;exitY=0.922;exitDx=0;exitDy=0;entryX=1;entryY=0.5;entryDx=0;entryDy=0;exitPerimeter=0;" parent="1" source="IFrq3-BLiu0b8xo9fZa--10" target="IFrq3-BLiu0b8xo9fZa--15" edge="1">
          <mxGeometry x="0.4123" y="149" relative="1" as="geometry">
            <mxPoint x="470" y="560" as="sourcePoint" />
            <mxPoint x="310" y="560" as="targetPoint" />
            <mxPoint x="-130" y="77" as="offset" />
          </mxGeometry>
        </mxCell>
        <mxCell id="IFrq3-BLiu0b8xo9fZa--43" value="" style="endArrow=open;html=1;endSize=12;startArrow=diamondThin;startSize=14;startFill=0;edgeStyle=orthogonalEdgeStyle;align=left;verticalAlign=bottom;rounded=0;entryX=0.89;entryY=0.013;entryDx=0;entryDy=0;entryPerimeter=0;" parent="1" target="IFrq3-BLiu0b8xo9fZa--23" edge="1">
          <mxGeometry x="0.4123" y="149" relative="1" as="geometry">
            <mxPoint x="270" y="630" as="sourcePoint" />
            <mxPoint x="80" y="700" as="targetPoint" />
            <mxPoint x="-130" y="77" as="offset" />
          </mxGeometry>
        </mxCell>
      </root>
    </mxGraphModel>
  </diagram>
  <diagram name="asnAST" id="lECj__jFVPVFVdIMruNs">
    <mxGraphModel dx="2927" dy="1098" grid="1" gridSize="10" guides="1" tooltips="1" connect="1" arrows="1" fold="1" page="1" pageScale="1" pageWidth="827" pageHeight="1169" math="0" shadow="0">
      <root>
        <mxCell id="UHv7QVIfAV6pWBTmiAMZ-0" />
        <mxCell id="UHv7QVIfAV6pWBTmiAMZ-1" parent="UHv7QVIfAV6pWBTmiAMZ-0" />
        <mxCell id="UHv7QVIfAV6pWBTmiAMZ-6" value="AsnBasicNode" style="swimlane;fontStyle=1;align=center;verticalAlign=top;childLayout=stackLayout;horizontal=1;startSize=30;horizontalStack=0;resizeParent=1;resizeParentMax=0;resizeLast=0;collapsible=1;marginBottom=0;whiteSpace=wrap;html=1;" vertex="1" parent="UHv7QVIfAV6pWBTmiAMZ-1">
          <mxGeometry x="-470" y="300" width="160" height="90" as="geometry" />
        </mxCell>
        <mxCell id="UHv7QVIfAV6pWBTmiAMZ-8" value="" style="line;strokeWidth=1;fillColor=none;align=left;verticalAlign=middle;spacingTop=-1;spacingLeft=3;spacingRight=3;rotatable=0;labelPosition=right;points=[];portConstraint=eastwest;strokeColor=inherit;" vertex="1" parent="UHv7QVIfAV6pWBTmiAMZ-6">
          <mxGeometry y="30" width="160" height="30" as="geometry" />
        </mxCell>
        <mxCell id="UHv7QVIfAV6pWBTmiAMZ-9" value="+&amp;nbsp;__init__(self, str): void" style="text;strokeColor=none;fillColor=none;align=left;verticalAlign=top;spacingLeft=4;spacingRight=4;overflow=hidden;rotatable=0;points=[[0,0.5],[1,0.5]];portConstraint=eastwest;whiteSpace=wrap;html=1;" vertex="1" parent="UHv7QVIfAV6pWBTmiAMZ-6">
          <mxGeometry y="60" width="160" height="30" as="geometry" />
        </mxCell>
        <mxCell id="UHv7QVIfAV6pWBTmiAMZ-23" value="" style="endArrow=open;html=1;endSize=12;startArrow=diamondThin;startSize=14;startFill=1;edgeStyle=orthogonalEdgeStyle;align=left;verticalAlign=bottom;rounded=0;entryX=0.5;entryY=0;entryDx=0;entryDy=0;exitX=1.03;exitY=0.029;exitDx=0;exitDy=0;exitPerimeter=0;" edge="1" parent="UHv7QVIfAV6pWBTmiAMZ-1" target="wpxUMyZ37g3ErgdPcbbq-61" source="wpxUMyZ37g3ErgdPcbbq-36">
          <mxGeometry x="0.5455" y="70" relative="1" as="geometry">
            <mxPoint x="-260" y="753" as="sourcePoint" />
            <mxPoint x="-110" y="770" as="targetPoint" />
            <mxPoint x="-70" y="-70" as="offset" />
          </mxGeometry>
        </mxCell>
        <mxCell id="ILBQJs9dg9_0bJsbloBf-24" value="AsnComplexNode" style="swimlane;fontStyle=1;align=center;verticalAlign=top;childLayout=stackLayout;horizontal=1;startSize=26;horizontalStack=0;resizeParent=1;resizeParentMax=0;resizeLast=0;collapsible=1;marginBottom=0;whiteSpace=wrap;html=1;" vertex="1" parent="UHv7QVIfAV6pWBTmiAMZ-1">
          <mxGeometry x="310" y="300" width="160" height="90" as="geometry" />
        </mxCell>
        <mxCell id="ILBQJs9dg9_0bJsbloBf-25" value="" style="line;strokeWidth=1;fillColor=none;align=left;verticalAlign=middle;spacingTop=-1;spacingLeft=3;spacingRight=3;rotatable=0;labelPosition=right;points=[];portConstraint=eastwest;strokeColor=inherit;" vertex="1" parent="ILBQJs9dg9_0bJsbloBf-24">
          <mxGeometry y="26" width="160" height="34" as="geometry" />
        </mxCell>
        <mxCell id="ILBQJs9dg9_0bJsbloBf-26" value="+&amp;nbsp;__init__(self, str): void" style="text;strokeColor=none;fillColor=none;align=left;verticalAlign=top;spacingLeft=4;spacingRight=4;overflow=hidden;rotatable=0;points=[[0,0.5],[1,0.5]];portConstraint=eastwest;whiteSpace=wrap;html=1;" vertex="1" parent="ILBQJs9dg9_0bJsbloBf-24">
          <mxGeometry y="60" width="160" height="30" as="geometry" />
        </mxCell>
        <mxCell id="ILBQJs9dg9_0bJsbloBf-45" value="" style="endArrow=open;html=1;endSize=12;startArrow=diamondThin;startSize=14;startFill=1;edgeStyle=orthogonalEdgeStyle;align=left;verticalAlign=bottom;rounded=0;entryX=0;entryY=0;entryDx=0;entryDy=0;exitX=1;exitY=0.5;exitDx=0;exitDy=0;" edge="1" parent="UHv7QVIfAV6pWBTmiAMZ-1" source="wpxUMyZ37g3ErgdPcbbq-36" target="wpxUMyZ37g3ErgdPcbbq-57">
          <mxGeometry x="0.5455" y="70" relative="1" as="geometry">
            <mxPoint x="-280" y="790" as="sourcePoint" />
            <mxPoint x="-270" y="910" as="targetPoint" />
            <mxPoint x="-70" y="-70" as="offset" />
          </mxGeometry>
        </mxCell>
        <mxCell id="wpxUMyZ37g3ErgdPcbbq-2" value="" style="endArrow=open;html=1;endSize=12;startArrow=diamondThin;startSize=14;startFill=1;edgeStyle=orthogonalEdgeStyle;align=left;verticalAlign=bottom;rounded=0;entryX=0.5;entryY=0;entryDx=0;entryDy=0;exitX=1;exitY=0.5;exitDx=0;exitDy=0;" edge="1" parent="UHv7QVIfAV6pWBTmiAMZ-1" source="wpxUMyZ37g3ErgdPcbbq-38" target="wpxUMyZ37g3ErgdPcbbq-53">
          <mxGeometry x="0.551" y="98" relative="1" as="geometry">
            <mxPoint x="-310" y="750" as="sourcePoint" />
            <mxPoint x="-320" y="1050" as="targetPoint" />
            <mxPoint as="offset" />
          </mxGeometry>
        </mxCell>
        <mxCell id="wpxUMyZ37g3ErgdPcbbq-6" value="" style="endArrow=open;html=1;endSize=12;startArrow=diamondThin;startSize=14;startFill=1;edgeStyle=orthogonalEdgeStyle;align=left;verticalAlign=bottom;rounded=0;entryX=0.25;entryY=0;entryDx=0;entryDy=0;exitX=0;exitY=0.5;exitDx=0;exitDy=0;" edge="1" parent="UHv7QVIfAV6pWBTmiAMZ-1" source="wpxUMyZ37g3ErgdPcbbq-38" target="wpxUMyZ37g3ErgdPcbbq-49">
          <mxGeometry x="0.5455" y="70" relative="1" as="geometry">
            <mxPoint x="-500" y="830" as="sourcePoint" />
            <mxPoint x="-480.0000000000002" y="1050" as="targetPoint" />
            <mxPoint x="-70" y="-70" as="offset" />
          </mxGeometry>
        </mxCell>
        <mxCell id="wpxUMyZ37g3ErgdPcbbq-7" value="" style="endArrow=open;html=1;endSize=12;startArrow=diamondThin;startSize=14;startFill=1;edgeStyle=orthogonalEdgeStyle;align=left;verticalAlign=bottom;rounded=0;entryX=1;entryY=0;entryDx=0;entryDy=0;exitX=0;exitY=0.5;exitDx=0;exitDy=0;" edge="1" parent="UHv7QVIfAV6pWBTmiAMZ-1" source="wpxUMyZ37g3ErgdPcbbq-36" target="wpxUMyZ37g3ErgdPcbbq-45">
          <mxGeometry x="0.5455" y="70" relative="1" as="geometry">
            <mxPoint x="-493.0000000000002" y="805" as="sourcePoint" />
            <mxPoint x="-560" y="920" as="targetPoint" />
            <mxPoint x="-70" y="-70" as="offset" />
          </mxGeometry>
        </mxCell>
        <mxCell id="wpxUMyZ37g3ErgdPcbbq-8" value="" style="endArrow=open;html=1;endSize=12;startArrow=diamondThin;startSize=14;startFill=1;edgeStyle=orthogonalEdgeStyle;align=left;verticalAlign=bottom;rounded=0;entryX=0.25;entryY=0;entryDx=0;entryDy=0;exitX=0;exitY=0.25;exitDx=0;exitDy=0;" edge="1" parent="UHv7QVIfAV6pWBTmiAMZ-1">
          <mxGeometry x="0.5455" y="70" relative="1" as="geometry">
            <mxPoint x="-493.0000000000002" y="752.5" as="sourcePoint" />
            <mxPoint x="-720" y="780" as="targetPoint" />
            <mxPoint x="-70" y="-70" as="offset" />
          </mxGeometry>
        </mxCell>
        <mxCell id="wpxUMyZ37g3ErgdPcbbq-9" value="" style="endArrow=open;html=1;endSize=12;startArrow=diamondThin;startSize=14;startFill=1;edgeStyle=orthogonalEdgeStyle;align=left;verticalAlign=bottom;rounded=0;entryX=0.5;entryY=0;entryDx=0;entryDy=0;exitX=0.571;exitY=1.008;exitDx=0;exitDy=0;exitPerimeter=0;" edge="1" parent="UHv7QVIfAV6pWBTmiAMZ-1" source="UHv7QVIfAV6pWBTmiAMZ-9">
          <mxGeometry x="0.5455" y="70" relative="1" as="geometry">
            <mxPoint x="-349" y="551" as="sourcePoint" />
            <mxPoint x="-413.0000000000002" y="730" as="targetPoint" />
            <mxPoint x="-70" y="-70" as="offset" />
          </mxGeometry>
        </mxCell>
        <mxCell id="wpxUMyZ37g3ErgdPcbbq-10" value="" style="endArrow=open;html=1;endSize=12;startArrow=diamondThin;startSize=14;startFill=1;edgeStyle=orthogonalEdgeStyle;align=left;verticalAlign=bottom;rounded=0;entryX=0.5;entryY=0;entryDx=0;entryDy=0;exitX=1;exitY=0.5;exitDx=0;exitDy=0;" edge="1" parent="UHv7QVIfAV6pWBTmiAMZ-1" source="UHv7QVIfAV6pWBTmiAMZ-6" target="wpxUMyZ37g3ErgdPcbbq-31">
          <mxGeometry x="0.5455" y="70" relative="1" as="geometry">
            <mxPoint x="-290.47" y="383" as="sourcePoint" />
            <mxPoint x="-180" y="490" as="targetPoint" />
            <mxPoint x="-70" y="-70" as="offset" />
          </mxGeometry>
        </mxCell>
        <mxCell id="wpxUMyZ37g3ErgdPcbbq-11" value="" style="endArrow=open;html=1;endSize=12;startArrow=diamondThin;startSize=14;startFill=1;edgeStyle=orthogonalEdgeStyle;align=left;verticalAlign=bottom;rounded=0;exitX=0;exitY=0.25;exitDx=0;exitDy=0;entryX=0.25;entryY=0;entryDx=0;entryDy=0;" edge="1" parent="UHv7QVIfAV6pWBTmiAMZ-1" source="UHv7QVIfAV6pWBTmiAMZ-6" target="wpxUMyZ37g3ErgdPcbbq-22">
          <mxGeometry x="0.5455" y="70" relative="1" as="geometry">
            <mxPoint x="-480" y="270" as="sourcePoint" />
            <mxPoint x="-770" y="322" as="targetPoint" />
            <mxPoint x="-70" y="-70" as="offset" />
          </mxGeometry>
        </mxCell>
        <mxCell id="wpxUMyZ37g3ErgdPcbbq-12" value="" style="endArrow=open;html=1;endSize=12;startArrow=diamondThin;startSize=14;startFill=1;edgeStyle=orthogonalEdgeStyle;align=left;verticalAlign=bottom;rounded=0;entryX=0.75;entryY=0;entryDx=0;entryDy=0;exitX=0;exitY=0.5;exitDx=0;exitDy=0;" edge="1" parent="UHv7QVIfAV6pWBTmiAMZ-1" source="UHv7QVIfAV6pWBTmiAMZ-9">
          <mxGeometry x="0.5455" y="70" relative="1" as="geometry">
            <mxPoint x="-470" y="373" as="sourcePoint" />
            <mxPoint x="-569.9999999999995" y="530" as="targetPoint" />
            <mxPoint x="-70" y="-70" as="offset" />
          </mxGeometry>
        </mxCell>
        <mxCell id="wpxUMyZ37g3ErgdPcbbq-13" value="" style="endArrow=open;html=1;endSize=12;startArrow=diamondThin;startSize=14;startFill=1;edgeStyle=orthogonalEdgeStyle;align=left;verticalAlign=bottom;rounded=0;entryX=0.75;entryY=0;entryDx=0;entryDy=0;exitX=0;exitY=0.5;exitDx=0;exitDy=0;" edge="1" parent="UHv7QVIfAV6pWBTmiAMZ-1" source="wpxUMyZ37g3ErgdPcbbq-19" target="UHv7QVIfAV6pWBTmiAMZ-6">
          <mxGeometry x="0.5455" y="70" relative="1" as="geometry">
            <mxPoint x="-80" y="190" as="sourcePoint" />
            <mxPoint x="-370" y="257" as="targetPoint" />
            <mxPoint x="-70" y="-70" as="offset" />
          </mxGeometry>
        </mxCell>
        <mxCell id="wpxUMyZ37g3ErgdPcbbq-18" value="AsnNode" style="swimlane;fontStyle=1;align=center;verticalAlign=top;childLayout=stackLayout;horizontal=1;startSize=26;horizontalStack=0;resizeParent=1;resizeParentMax=0;resizeLast=0;collapsible=1;marginBottom=0;whiteSpace=wrap;html=1;" vertex="1" parent="UHv7QVIfAV6pWBTmiAMZ-1">
          <mxGeometry x="-70" y="140" width="160" height="130" as="geometry" />
        </mxCell>
        <mxCell id="wpxUMyZ37g3ErgdPcbbq-19" value="&lt;div&gt;_leafType: str&lt;/div&gt;&lt;div&gt;_asnFilename: str&lt;/div&gt;&lt;div&gt;_lineno: str&lt;/div&gt;&lt;div&gt;&lt;br&gt;&lt;/div&gt;" style="text;strokeColor=none;fillColor=none;align=left;verticalAlign=top;spacingLeft=4;spacingRight=4;overflow=hidden;rotatable=0;points=[[0,0.5],[1,0.5]];portConstraint=eastwest;whiteSpace=wrap;html=1;" vertex="1" parent="wpxUMyZ37g3ErgdPcbbq-18">
          <mxGeometry y="26" width="160" height="54" as="geometry" />
        </mxCell>
        <mxCell id="wpxUMyZ37g3ErgdPcbbq-20" value="" style="line;strokeWidth=1;fillColor=none;align=left;verticalAlign=middle;spacingTop=-1;spacingLeft=3;spacingRight=3;rotatable=0;labelPosition=right;points=[];portConstraint=eastwest;strokeColor=inherit;" vertex="1" parent="wpxUMyZ37g3ErgdPcbbq-18">
          <mxGeometry y="80" width="160" height="8" as="geometry" />
        </mxCell>
        <mxCell id="wpxUMyZ37g3ErgdPcbbq-21" value="+&amp;nbsp;__init__(self, str): void&lt;br style=&quot;border-color: var(--border-color);&quot;&gt;+&amp;nbsp; location(self): str" style="text;strokeColor=none;fillColor=none;align=left;verticalAlign=top;spacingLeft=4;spacingRight=4;overflow=hidden;rotatable=0;points=[[0,0.5],[1,0.5]];portConstraint=eastwest;whiteSpace=wrap;html=1;" vertex="1" parent="wpxUMyZ37g3ErgdPcbbq-18">
          <mxGeometry y="88" width="160" height="42" as="geometry" />
        </mxCell>
        <mxCell id="wpxUMyZ37g3ErgdPcbbq-22" value="AsnBool" style="swimlane;fontStyle=1;align=center;verticalAlign=top;childLayout=stackLayout;horizontal=1;startSize=26;horizontalStack=0;resizeParent=1;resizeParentMax=0;resizeLast=0;collapsible=1;marginBottom=0;whiteSpace=wrap;html=1;" vertex="1" parent="UHv7QVIfAV6pWBTmiAMZ-1">
          <mxGeometry x="-810" y="370" width="150" height="150" as="geometry" />
        </mxCell>
        <mxCell id="wpxUMyZ37g3ErgdPcbbq-23" value="&lt;div&gt;_leafType: str&lt;/div&gt;&lt;div&gt;&lt;span style=&quot;background-color: initial;&quot;&gt;_lineno: str&lt;/span&gt;&lt;br&gt;&lt;/div&gt;&lt;div&gt;validOptions: list[str]&lt;br&gt;&lt;/div&gt;&lt;div&gt;&lt;br&gt;&lt;/div&gt;" style="text;strokeColor=none;fillColor=none;align=left;verticalAlign=top;spacingLeft=4;spacingRight=4;overflow=hidden;rotatable=0;points=[[0,0.5],[1,0.5]];portConstraint=eastwest;whiteSpace=wrap;html=1;" vertex="1" parent="wpxUMyZ37g3ErgdPcbbq-22">
          <mxGeometry y="26" width="150" height="74" as="geometry" />
        </mxCell>
        <mxCell id="wpxUMyZ37g3ErgdPcbbq-24" value="" style="line;strokeWidth=1;fillColor=none;align=left;verticalAlign=middle;spacingTop=-1;spacingLeft=3;spacingRight=3;rotatable=0;labelPosition=right;points=[];portConstraint=eastwest;strokeColor=inherit;" vertex="1" parent="wpxUMyZ37g3ErgdPcbbq-22">
          <mxGeometry y="100" width="150" height="8" as="geometry" />
        </mxCell>
        <mxCell id="wpxUMyZ37g3ErgdPcbbq-25" value="+&amp;nbsp;__init__(self, Any): void&lt;br style=&quot;border-color: var(--border-color);&quot;&gt;+ __repr__(self): str" style="text;strokeColor=none;fillColor=none;align=left;verticalAlign=top;spacingLeft=4;spacingRight=4;overflow=hidden;rotatable=0;points=[[0,0.5],[1,0.5]];portConstraint=eastwest;whiteSpace=wrap;html=1;" vertex="1" parent="wpxUMyZ37g3ErgdPcbbq-22">
          <mxGeometry y="108" width="150" height="42" as="geometry" />
        </mxCell>
        <mxCell id="wpxUMyZ37g3ErgdPcbbq-27" value="AsnInt" style="swimlane;fontStyle=1;align=center;verticalAlign=top;childLayout=stackLayout;horizontal=1;startSize=26;horizontalStack=0;resizeParent=1;resizeParentMax=0;resizeLast=0;collapsible=1;marginBottom=0;whiteSpace=wrap;html=1;" vertex="1" parent="UHv7QVIfAV6pWBTmiAMZ-1">
          <mxGeometry x="-650" y="530" width="150" height="170" as="geometry" />
        </mxCell>
        <mxCell id="wpxUMyZ37g3ErgdPcbbq-28" value="&lt;div&gt;_leafType: str&lt;/div&gt;&lt;div&gt;&lt;span style=&quot;background-color: initial;&quot;&gt;_lineno: str&lt;/span&gt;&lt;br&gt;&lt;/div&gt;&lt;div&gt;validOptions: list[str]&lt;br&gt;&lt;/div&gt;&lt;div&gt;_range: int [min, max]&lt;br&gt;&lt;/div&gt;&lt;div&gt;_iDefaultValue: int&lt;br&gt;&lt;/div&gt;" style="text;strokeColor=none;fillColor=none;align=left;verticalAlign=top;spacingLeft=4;spacingRight=4;overflow=hidden;rotatable=0;points=[[0,0.5],[1,0.5]];portConstraint=eastwest;whiteSpace=wrap;html=1;" vertex="1" parent="wpxUMyZ37g3ErgdPcbbq-27">
          <mxGeometry y="26" width="150" height="94" as="geometry" />
        </mxCell>
        <mxCell id="wpxUMyZ37g3ErgdPcbbq-29" value="" style="line;strokeWidth=1;fillColor=none;align=left;verticalAlign=middle;spacingTop=-1;spacingLeft=3;spacingRight=3;rotatable=0;labelPosition=right;points=[];portConstraint=eastwest;strokeColor=inherit;" vertex="1" parent="wpxUMyZ37g3ErgdPcbbq-27">
          <mxGeometry y="120" width="150" height="8" as="geometry" />
        </mxCell>
        <mxCell id="wpxUMyZ37g3ErgdPcbbq-30" value="+&amp;nbsp;__init__(self, Any): void&lt;br style=&quot;border-color: var(--border-color);&quot;&gt;+ __repr__(self): str" style="text;strokeColor=none;fillColor=none;align=left;verticalAlign=top;spacingLeft=4;spacingRight=4;overflow=hidden;rotatable=0;points=[[0,0.5],[1,0.5]];portConstraint=eastwest;whiteSpace=wrap;html=1;" vertex="1" parent="wpxUMyZ37g3ErgdPcbbq-27">
          <mxGeometry y="128" width="150" height="42" as="geometry" />
        </mxCell>
        <mxCell id="wpxUMyZ37g3ErgdPcbbq-31" value="AsnReal" style="swimlane;fontStyle=1;align=center;verticalAlign=top;childLayout=stackLayout;horizontal=1;startSize=26;horizontalStack=0;resizeParent=1;resizeParentMax=0;resizeLast=0;collapsible=1;marginBottom=0;whiteSpace=wrap;html=1;" vertex="1" parent="UHv7QVIfAV6pWBTmiAMZ-1">
          <mxGeometry x="-240" y="450" width="150" height="220" as="geometry" />
        </mxCell>
        <mxCell id="wpxUMyZ37g3ErgdPcbbq-32" value="&lt;div&gt;_leafType: str&lt;/div&gt;&lt;div&gt;&lt;span style=&quot;background-color: initial;&quot;&gt;_lineno: str&lt;/span&gt;&lt;br&gt;&lt;/div&gt;&lt;div&gt;validOptions: list[str]&lt;br&gt;&lt;/div&gt;&lt;div&gt;_range: int [min, max]&lt;br&gt;&lt;/div&gt;&lt;div&gt;&lt;div&gt;_mantissaRange: float&lt;/div&gt;&lt;div&gt;_baseRange: float&lt;/div&gt;&lt;div&gt;_exponentRange: float&lt;/div&gt;&lt;div&gt;_dbDefaultValue: float&lt;/div&gt;&lt;/div&gt;" style="text;strokeColor=none;fillColor=none;align=left;verticalAlign=top;spacingLeft=4;spacingRight=4;overflow=hidden;rotatable=0;points=[[0,0.5],[1,0.5]];portConstraint=eastwest;whiteSpace=wrap;html=1;" vertex="1" parent="wpxUMyZ37g3ErgdPcbbq-31">
          <mxGeometry y="26" width="150" height="144" as="geometry" />
        </mxCell>
        <mxCell id="wpxUMyZ37g3ErgdPcbbq-33" value="" style="line;strokeWidth=1;fillColor=none;align=left;verticalAlign=middle;spacingTop=-1;spacingLeft=3;spacingRight=3;rotatable=0;labelPosition=right;points=[];portConstraint=eastwest;strokeColor=inherit;" vertex="1" parent="wpxUMyZ37g3ErgdPcbbq-31">
          <mxGeometry y="170" width="150" height="8" as="geometry" />
        </mxCell>
        <mxCell id="wpxUMyZ37g3ErgdPcbbq-34" value="+&amp;nbsp;__init__(self, Any): void&lt;br style=&quot;border-color: var(--border-color);&quot;&gt;+ __repr__(self): str" style="text;strokeColor=none;fillColor=none;align=left;verticalAlign=top;spacingLeft=4;spacingRight=4;overflow=hidden;rotatable=0;points=[[0,0.5],[1,0.5]];portConstraint=eastwest;whiteSpace=wrap;html=1;" vertex="1" parent="wpxUMyZ37g3ErgdPcbbq-31">
          <mxGeometry y="178" width="150" height="42" as="geometry" />
        </mxCell>
        <mxCell id="wpxUMyZ37g3ErgdPcbbq-35" value="AsnString" style="swimlane;fontStyle=1;align=center;verticalAlign=top;childLayout=stackLayout;horizontal=1;startSize=26;horizontalStack=0;resizeParent=1;resizeParentMax=0;resizeLast=0;collapsible=1;marginBottom=0;whiteSpace=wrap;html=1;" vertex="1" parent="UHv7QVIfAV6pWBTmiAMZ-1">
          <mxGeometry x="-480" y="730" width="150" height="170" as="geometry" />
        </mxCell>
        <mxCell id="wpxUMyZ37g3ErgdPcbbq-36" value="&lt;div&gt;_leafType: str&lt;/div&gt;&lt;div&gt;&lt;span style=&quot;background-color: initial;&quot;&gt;_lineno: str&lt;/span&gt;&lt;br&gt;&lt;/div&gt;&lt;div&gt;validOptions: list[str]&lt;br&gt;&lt;/div&gt;&lt;div&gt;_range: int [min, max]&lt;br&gt;&lt;/div&gt;&lt;div&gt;_pseudoname: str&lt;br&gt;&lt;/div&gt;" style="text;strokeColor=none;fillColor=none;align=left;verticalAlign=top;spacingLeft=4;spacingRight=4;overflow=hidden;rotatable=0;points=[[0,0.5],[1,0.5]];portConstraint=eastwest;whiteSpace=wrap;html=1;" vertex="1" parent="wpxUMyZ37g3ErgdPcbbq-35">
          <mxGeometry y="26" width="150" height="94" as="geometry" />
        </mxCell>
        <mxCell id="wpxUMyZ37g3ErgdPcbbq-37" value="" style="line;strokeWidth=1;fillColor=none;align=left;verticalAlign=middle;spacingTop=-1;spacingLeft=3;spacingRight=3;rotatable=0;labelPosition=right;points=[];portConstraint=eastwest;strokeColor=inherit;" vertex="1" parent="wpxUMyZ37g3ErgdPcbbq-35">
          <mxGeometry y="120" width="150" height="8" as="geometry" />
        </mxCell>
        <mxCell id="wpxUMyZ37g3ErgdPcbbq-38" value="+&amp;nbsp;__init__(self, Any): void&lt;br style=&quot;border-color: var(--border-color);&quot;&gt;+ __repr__(self): str" style="text;strokeColor=none;fillColor=none;align=left;verticalAlign=top;spacingLeft=4;spacingRight=4;overflow=hidden;rotatable=0;points=[[0,0.5],[1,0.5]];portConstraint=eastwest;whiteSpace=wrap;html=1;" vertex="1" parent="wpxUMyZ37g3ErgdPcbbq-35">
          <mxGeometry y="128" width="150" height="42" as="geometry" />
        </mxCell>
        <mxCell id="wpxUMyZ37g3ErgdPcbbq-41" value="AsnOctetString" style="swimlane;fontStyle=1;align=center;verticalAlign=top;childLayout=stackLayout;horizontal=1;startSize=26;horizontalStack=0;resizeParent=1;resizeParentMax=0;resizeLast=0;collapsible=1;marginBottom=0;whiteSpace=wrap;html=1;" vertex="1" parent="UHv7QVIfAV6pWBTmiAMZ-1">
          <mxGeometry x="-780" y="780" width="150" height="110" as="geometry" />
        </mxCell>
        <mxCell id="wpxUMyZ37g3ErgdPcbbq-42" value="&lt;div&gt;_leafType: str&lt;/div&gt;&lt;div&gt;&lt;span style=&quot;background-color: initial;&quot;&gt;_lname: str&lt;/span&gt;&lt;br&gt;&lt;/div&gt;&lt;div&gt;&lt;br&gt;&lt;/div&gt;" style="text;strokeColor=none;fillColor=none;align=left;verticalAlign=top;spacingLeft=4;spacingRight=4;overflow=hidden;rotatable=0;points=[[0,0.5],[1,0.5]];portConstraint=eastwest;whiteSpace=wrap;html=1;" vertex="1" parent="wpxUMyZ37g3ErgdPcbbq-41">
          <mxGeometry y="26" width="150" height="34" as="geometry" />
        </mxCell>
        <mxCell id="wpxUMyZ37g3ErgdPcbbq-43" value="" style="line;strokeWidth=1;fillColor=none;align=left;verticalAlign=middle;spacingTop=-1;spacingLeft=3;spacingRight=3;rotatable=0;labelPosition=right;points=[];portConstraint=eastwest;strokeColor=inherit;" vertex="1" parent="wpxUMyZ37g3ErgdPcbbq-41">
          <mxGeometry y="60" width="150" height="8" as="geometry" />
        </mxCell>
        <mxCell id="wpxUMyZ37g3ErgdPcbbq-44" value="+&amp;nbsp;__init__(self, Any): void&lt;br style=&quot;border-color: var(--border-color);&quot;&gt;+ __repr__(self): str" style="text;strokeColor=none;fillColor=none;align=left;verticalAlign=top;spacingLeft=4;spacingRight=4;overflow=hidden;rotatable=0;points=[[0,0.5],[1,0.5]];portConstraint=eastwest;whiteSpace=wrap;html=1;" vertex="1" parent="wpxUMyZ37g3ErgdPcbbq-41">
          <mxGeometry y="68" width="150" height="42" as="geometry" />
        </mxCell>
        <mxCell id="wpxUMyZ37g3ErgdPcbbq-45" value="AsnUTF8String" style="swimlane;fontStyle=1;align=center;verticalAlign=top;childLayout=stackLayout;horizontal=1;startSize=26;horizontalStack=0;resizeParent=1;resizeParentMax=0;resizeLast=0;collapsible=1;marginBottom=0;whiteSpace=wrap;html=1;" vertex="1" parent="UHv7QVIfAV6pWBTmiAMZ-1">
          <mxGeometry x="-760" y="920" width="150" height="110" as="geometry" />
        </mxCell>
        <mxCell id="wpxUMyZ37g3ErgdPcbbq-46" value="&lt;div&gt;_leafType: str&lt;/div&gt;&lt;div&gt;&lt;span style=&quot;background-color: initial;&quot;&gt;_lname: str&lt;/span&gt;&lt;br&gt;&lt;/div&gt;&lt;div&gt;&lt;br&gt;&lt;/div&gt;" style="text;strokeColor=none;fillColor=none;align=left;verticalAlign=top;spacingLeft=4;spacingRight=4;overflow=hidden;rotatable=0;points=[[0,0.5],[1,0.5]];portConstraint=eastwest;whiteSpace=wrap;html=1;" vertex="1" parent="wpxUMyZ37g3ErgdPcbbq-45">
          <mxGeometry y="26" width="150" height="34" as="geometry" />
        </mxCell>
        <mxCell id="wpxUMyZ37g3ErgdPcbbq-47" value="" style="line;strokeWidth=1;fillColor=none;align=left;verticalAlign=middle;spacingTop=-1;spacingLeft=3;spacingRight=3;rotatable=0;labelPosition=right;points=[];portConstraint=eastwest;strokeColor=inherit;" vertex="1" parent="wpxUMyZ37g3ErgdPcbbq-45">
          <mxGeometry y="60" width="150" height="8" as="geometry" />
        </mxCell>
        <mxCell id="wpxUMyZ37g3ErgdPcbbq-48" value="+&amp;nbsp;__init__(self, Any): void&lt;br style=&quot;border-color: var(--border-color);&quot;&gt;+ __repr__(self): str" style="text;strokeColor=none;fillColor=none;align=left;verticalAlign=top;spacingLeft=4;spacingRight=4;overflow=hidden;rotatable=0;points=[[0,0.5],[1,0.5]];portConstraint=eastwest;whiteSpace=wrap;html=1;" vertex="1" parent="wpxUMyZ37g3ErgdPcbbq-45">
          <mxGeometry y="68" width="150" height="42" as="geometry" />
        </mxCell>
        <mxCell id="wpxUMyZ37g3ErgdPcbbq-49" value="AsnAsciiString" style="swimlane;fontStyle=1;align=center;verticalAlign=top;childLayout=stackLayout;horizontal=1;startSize=26;horizontalStack=0;resizeParent=1;resizeParentMax=0;resizeLast=0;collapsible=1;marginBottom=0;whiteSpace=wrap;html=1;" vertex="1" parent="UHv7QVIfAV6pWBTmiAMZ-1">
          <mxGeometry x="-600" y="1059" width="150" height="110" as="geometry" />
        </mxCell>
        <mxCell id="wpxUMyZ37g3ErgdPcbbq-50" value="&lt;div&gt;_leafType: str&lt;/div&gt;&lt;div&gt;&lt;span style=&quot;background-color: initial;&quot;&gt;_lname: str&lt;/span&gt;&lt;br&gt;&lt;/div&gt;&lt;div&gt;&lt;br&gt;&lt;/div&gt;" style="text;strokeColor=none;fillColor=none;align=left;verticalAlign=top;spacingLeft=4;spacingRight=4;overflow=hidden;rotatable=0;points=[[0,0.5],[1,0.5]];portConstraint=eastwest;whiteSpace=wrap;html=1;" vertex="1" parent="wpxUMyZ37g3ErgdPcbbq-49">
          <mxGeometry y="26" width="150" height="34" as="geometry" />
        </mxCell>
        <mxCell id="wpxUMyZ37g3ErgdPcbbq-51" value="" style="line;strokeWidth=1;fillColor=none;align=left;verticalAlign=middle;spacingTop=-1;spacingLeft=3;spacingRight=3;rotatable=0;labelPosition=right;points=[];portConstraint=eastwest;strokeColor=inherit;" vertex="1" parent="wpxUMyZ37g3ErgdPcbbq-49">
          <mxGeometry y="60" width="150" height="8" as="geometry" />
        </mxCell>
        <mxCell id="wpxUMyZ37g3ErgdPcbbq-52" value="+&amp;nbsp;__init__(self, Any): void&lt;br style=&quot;border-color: var(--border-color);&quot;&gt;+ __repr__(self): str" style="text;strokeColor=none;fillColor=none;align=left;verticalAlign=top;spacingLeft=4;spacingRight=4;overflow=hidden;rotatable=0;points=[[0,0.5],[1,0.5]];portConstraint=eastwest;whiteSpace=wrap;html=1;" vertex="1" parent="wpxUMyZ37g3ErgdPcbbq-49">
          <mxGeometry y="68" width="150" height="42" as="geometry" />
        </mxCell>
        <mxCell id="wpxUMyZ37g3ErgdPcbbq-53" value="AsnNumberString" style="swimlane;fontStyle=1;align=center;verticalAlign=top;childLayout=stackLayout;horizontal=1;startSize=26;horizontalStack=0;resizeParent=1;resizeParentMax=0;resizeLast=0;collapsible=1;marginBottom=0;whiteSpace=wrap;html=1;" vertex="1" parent="UHv7QVIfAV6pWBTmiAMZ-1">
          <mxGeometry x="-360" y="1059" width="150" height="110" as="geometry" />
        </mxCell>
        <mxCell id="wpxUMyZ37g3ErgdPcbbq-54" value="&lt;div&gt;_leafType: str&lt;/div&gt;&lt;div&gt;&lt;span style=&quot;background-color: initial;&quot;&gt;_lname: str&lt;/span&gt;&lt;br&gt;&lt;/div&gt;&lt;div&gt;&lt;br&gt;&lt;/div&gt;" style="text;strokeColor=none;fillColor=none;align=left;verticalAlign=top;spacingLeft=4;spacingRight=4;overflow=hidden;rotatable=0;points=[[0,0.5],[1,0.5]];portConstraint=eastwest;whiteSpace=wrap;html=1;" vertex="1" parent="wpxUMyZ37g3ErgdPcbbq-53">
          <mxGeometry y="26" width="150" height="34" as="geometry" />
        </mxCell>
        <mxCell id="wpxUMyZ37g3ErgdPcbbq-55" value="" style="line;strokeWidth=1;fillColor=none;align=left;verticalAlign=middle;spacingTop=-1;spacingLeft=3;spacingRight=3;rotatable=0;labelPosition=right;points=[];portConstraint=eastwest;strokeColor=inherit;" vertex="1" parent="wpxUMyZ37g3ErgdPcbbq-53">
          <mxGeometry y="60" width="150" height="8" as="geometry" />
        </mxCell>
        <mxCell id="wpxUMyZ37g3ErgdPcbbq-56" value="+&amp;nbsp;__init__(self, Any): void&lt;br style=&quot;border-color: var(--border-color);&quot;&gt;+ __repr__(self): str" style="text;strokeColor=none;fillColor=none;align=left;verticalAlign=top;spacingLeft=4;spacingRight=4;overflow=hidden;rotatable=0;points=[[0,0.5],[1,0.5]];portConstraint=eastwest;whiteSpace=wrap;html=1;" vertex="1" parent="wpxUMyZ37g3ErgdPcbbq-53">
          <mxGeometry y="68" width="150" height="42" as="geometry" />
        </mxCell>
        <mxCell id="wpxUMyZ37g3ErgdPcbbq-57" value="AsnVisibleString" style="swimlane;fontStyle=1;align=center;verticalAlign=top;childLayout=stackLayout;horizontal=1;startSize=26;horizontalStack=0;resizeParent=1;resizeParentMax=0;resizeLast=0;collapsible=1;marginBottom=0;whiteSpace=wrap;html=1;" vertex="1" parent="UHv7QVIfAV6pWBTmiAMZ-1">
          <mxGeometry x="-200" y="930" width="150" height="110" as="geometry" />
        </mxCell>
        <mxCell id="wpxUMyZ37g3ErgdPcbbq-58" value="&lt;div&gt;_leafType: str&lt;/div&gt;&lt;div&gt;&lt;span style=&quot;background-color: initial;&quot;&gt;_lname: str&lt;/span&gt;&lt;br&gt;&lt;/div&gt;&lt;div&gt;&lt;br&gt;&lt;/div&gt;" style="text;strokeColor=none;fillColor=none;align=left;verticalAlign=top;spacingLeft=4;spacingRight=4;overflow=hidden;rotatable=0;points=[[0,0.5],[1,0.5]];portConstraint=eastwest;whiteSpace=wrap;html=1;" vertex="1" parent="wpxUMyZ37g3ErgdPcbbq-57">
          <mxGeometry y="26" width="150" height="34" as="geometry" />
        </mxCell>
        <mxCell id="wpxUMyZ37g3ErgdPcbbq-59" value="" style="line;strokeWidth=1;fillColor=none;align=left;verticalAlign=middle;spacingTop=-1;spacingLeft=3;spacingRight=3;rotatable=0;labelPosition=right;points=[];portConstraint=eastwest;strokeColor=inherit;" vertex="1" parent="wpxUMyZ37g3ErgdPcbbq-57">
          <mxGeometry y="60" width="150" height="8" as="geometry" />
        </mxCell>
        <mxCell id="wpxUMyZ37g3ErgdPcbbq-60" value="+&amp;nbsp;__init__(self, Any): void&lt;br style=&quot;border-color: var(--border-color);&quot;&gt;+ __repr__(self): str" style="text;strokeColor=none;fillColor=none;align=left;verticalAlign=top;spacingLeft=4;spacingRight=4;overflow=hidden;rotatable=0;points=[[0,0.5],[1,0.5]];portConstraint=eastwest;whiteSpace=wrap;html=1;" vertex="1" parent="wpxUMyZ37g3ErgdPcbbq-57">
          <mxGeometry y="68" width="150" height="42" as="geometry" />
        </mxCell>
        <mxCell id="wpxUMyZ37g3ErgdPcbbq-61" value="AsnPrintableString" style="swimlane;fontStyle=1;align=center;verticalAlign=top;childLayout=stackLayout;horizontal=1;startSize=26;horizontalStack=0;resizeParent=1;resizeParentMax=0;resizeLast=0;collapsible=1;marginBottom=0;whiteSpace=wrap;html=1;" vertex="1" parent="UHv7QVIfAV6pWBTmiAMZ-1">
          <mxGeometry x="-170" y="790" width="150" height="110" as="geometry" />
        </mxCell>
        <mxCell id="wpxUMyZ37g3ErgdPcbbq-62" value="&lt;div&gt;_leafType: str&lt;/div&gt;&lt;div&gt;&lt;span style=&quot;background-color: initial;&quot;&gt;_lname: str&lt;/span&gt;&lt;br&gt;&lt;/div&gt;&lt;div&gt;&lt;br&gt;&lt;/div&gt;" style="text;strokeColor=none;fillColor=none;align=left;verticalAlign=top;spacingLeft=4;spacingRight=4;overflow=hidden;rotatable=0;points=[[0,0.5],[1,0.5]];portConstraint=eastwest;whiteSpace=wrap;html=1;" vertex="1" parent="wpxUMyZ37g3ErgdPcbbq-61">
          <mxGeometry y="26" width="150" height="34" as="geometry" />
        </mxCell>
        <mxCell id="wpxUMyZ37g3ErgdPcbbq-63" value="" style="line;strokeWidth=1;fillColor=none;align=left;verticalAlign=middle;spacingTop=-1;spacingLeft=3;spacingRight=3;rotatable=0;labelPosition=right;points=[];portConstraint=eastwest;strokeColor=inherit;" vertex="1" parent="wpxUMyZ37g3ErgdPcbbq-61">
          <mxGeometry y="60" width="150" height="8" as="geometry" />
        </mxCell>
        <mxCell id="wpxUMyZ37g3ErgdPcbbq-64" value="+&amp;nbsp;__init__(self, Any): void&lt;br style=&quot;border-color: var(--border-color);&quot;&gt;+ __repr__(self): str" style="text;strokeColor=none;fillColor=none;align=left;verticalAlign=top;spacingLeft=4;spacingRight=4;overflow=hidden;rotatable=0;points=[[0,0.5],[1,0.5]];portConstraint=eastwest;whiteSpace=wrap;html=1;" vertex="1" parent="wpxUMyZ37g3ErgdPcbbq-61">
          <mxGeometry y="68" width="150" height="42" as="geometry" />
        </mxCell>
        <mxCell id="wpxUMyZ37g3ErgdPcbbq-65" value="" style="endArrow=open;html=1;endSize=12;startArrow=diamondThin;startSize=14;startFill=1;edgeStyle=orthogonalEdgeStyle;align=left;verticalAlign=bottom;rounded=0;entryX=0.25;entryY=0;entryDx=0;entryDy=0;exitX=1;exitY=0.5;exitDx=0;exitDy=0;" edge="1" parent="UHv7QVIfAV6pWBTmiAMZ-1" source="wpxUMyZ37g3ErgdPcbbq-19" target="ILBQJs9dg9_0bJsbloBf-24">
          <mxGeometry x="0.5455" y="70" relative="1" as="geometry">
            <mxPoint x="180" y="277" as="sourcePoint" />
            <mxPoint x="460" y="170" as="targetPoint" />
            <mxPoint x="-70" y="-70" as="offset" />
          </mxGeometry>
        </mxCell>
        <mxCell id="wpxUMyZ37g3ErgdPcbbq-66" value="AsnEnumerated" style="swimlane;fontStyle=1;align=center;verticalAlign=top;childLayout=stackLayout;horizontal=1;startSize=26;horizontalStack=0;resizeParent=1;resizeParentMax=0;resizeLast=0;collapsible=1;marginBottom=0;whiteSpace=wrap;html=1;" vertex="1" parent="UHv7QVIfAV6pWBTmiAMZ-1">
          <mxGeometry x="70" y="390" width="170" height="220" as="geometry" />
        </mxCell>
        <mxCell id="wpxUMyZ37g3ErgdPcbbq-67" value="&lt;div&gt;_leafType: str&lt;/div&gt;&lt;div&gt;&lt;span style=&quot;background-color: initial;&quot;&gt;_lineno: str&lt;/span&gt;&lt;br&gt;&lt;/div&gt;&lt;div&gt;validOptions: list[str]&lt;br&gt;&lt;/div&gt;&lt;div&gt;&lt;span style=&quot;background-color: initial;&quot;&gt;_name: str&lt;/span&gt;&lt;br&gt;&lt;/div&gt;&lt;div&gt;&lt;div&gt;&lt;span style=&quot;background-color: initial;&quot;&gt;_default: str&lt;/span&gt;&lt;/div&gt;&lt;div&gt;&lt;span style=&quot;background-color: initial;&quot;&gt;_pseudoname: str&lt;/span&gt;&lt;/div&gt;&lt;div&gt;&lt;span style=&quot;background-color: initial;&quot;&gt;&lt;div&gt;_members list:(name, value)&lt;/div&gt;&lt;div&gt;existing: dict[str, int]&lt;/div&gt;&lt;/span&gt;&lt;/div&gt;&lt;div&gt;&lt;br&gt;&lt;/div&gt;&lt;/div&gt;" style="text;strokeColor=none;fillColor=none;align=left;verticalAlign=top;spacingLeft=4;spacingRight=4;overflow=hidden;rotatable=0;points=[[0,0.5],[1,0.5]];portConstraint=eastwest;whiteSpace=wrap;html=1;" vertex="1" parent="wpxUMyZ37g3ErgdPcbbq-66">
          <mxGeometry y="26" width="170" height="144" as="geometry" />
        </mxCell>
        <mxCell id="wpxUMyZ37g3ErgdPcbbq-68" value="" style="line;strokeWidth=1;fillColor=none;align=left;verticalAlign=middle;spacingTop=-1;spacingLeft=3;spacingRight=3;rotatable=0;labelPosition=right;points=[];portConstraint=eastwest;strokeColor=inherit;" vertex="1" parent="wpxUMyZ37g3ErgdPcbbq-66">
          <mxGeometry y="170" width="170" height="8" as="geometry" />
        </mxCell>
        <mxCell id="wpxUMyZ37g3ErgdPcbbq-69" value="+&amp;nbsp;__init__(self, Any): void&lt;br style=&quot;border-color: var(--border-color);&quot;&gt;+ __repr__(self): str" style="text;strokeColor=none;fillColor=none;align=left;verticalAlign=top;spacingLeft=4;spacingRight=4;overflow=hidden;rotatable=0;points=[[0,0.5],[1,0.5]];portConstraint=eastwest;whiteSpace=wrap;html=1;" vertex="1" parent="wpxUMyZ37g3ErgdPcbbq-66">
          <mxGeometry y="178" width="170" height="42" as="geometry" />
        </mxCell>
        <mxCell id="wpxUMyZ37g3ErgdPcbbq-70" value="AsnSequence/AsnSet/AsnChoice" style="swimlane;fontStyle=1;align=center;verticalAlign=top;childLayout=stackLayout;horizontal=1;startSize=26;horizontalStack=0;resizeParent=1;resizeParentMax=0;resizeLast=0;collapsible=1;marginBottom=0;whiteSpace=wrap;html=1;" vertex="1" parent="UHv7QVIfAV6pWBTmiAMZ-1">
          <mxGeometry x="260" y="660" width="290" height="310" as="geometry" />
        </mxCell>
        <mxCell id="wpxUMyZ37g3ErgdPcbbq-71" value="&lt;div&gt;_leafType: str&lt;/div&gt;&lt;div&gt;&lt;span style=&quot;background-color: initial;&quot;&gt;_lineno: str&lt;/span&gt;&lt;br&gt;&lt;/div&gt;&lt;div&gt;validOptions: list[str]&lt;br&gt;&lt;/div&gt;&lt;div&gt;&lt;span style=&quot;background-color: initial;&quot;&gt;_name: str&lt;/span&gt;&lt;br&gt;&lt;/div&gt;&lt;div&gt;&lt;div&gt;&lt;span style=&quot;background-color: initial;&quot;&gt;_default: str&lt;/span&gt;&lt;/div&gt;&lt;div&gt;&lt;span style=&quot;background-color: initial;&quot;&gt;_pseudoname: str&lt;/span&gt;&lt;/div&gt;&lt;div&gt;&amp;nbsp; existing: dict[str, int]&lt;span style=&quot;background-color: initial;&quot;&gt;&lt;br&gt;&lt;/span&gt;&lt;/div&gt;&lt;div&gt;&lt;span style=&quot;background-color: initial;&quot;&gt;&lt;div&gt;&lt;div&gt;_members list:(name, value, ...&amp;nbsp;&lt;/div&gt;&lt;div&gt;value: AsnBasicNode,&amp;nbsp;&lt;/div&gt;&lt;div&gt;&amp;nbsp; &amp;nbsp; &amp;nbsp; &amp;nbsp; &amp;nbsp; &amp;nbsp;AsnEnumerated,&lt;/div&gt;&lt;div&gt;&amp;nbsp; &amp;nbsp; &amp;nbsp; &amp;nbsp; &amp;nbsp; &amp;nbsp;AsnMetaMember&lt;/div&gt;&lt;div&gt;en: str&lt;/div&gt;&lt;div&gt;op: bool&amp;nbsp;&amp;nbsp;&lt;/div&gt;&lt;div&gt;alwaysPresent: bool&lt;/div&gt;&lt;div&gt;alwaysAbsent: bool&lt;/div&gt;&lt;/div&gt;&lt;div&gt;&lt;br&gt;&lt;/div&gt;&lt;/span&gt;&lt;/div&gt;&lt;div&gt;&lt;br&gt;&lt;/div&gt;&lt;/div&gt;" style="text;strokeColor=none;fillColor=none;align=left;verticalAlign=top;spacingLeft=4;spacingRight=4;overflow=hidden;rotatable=0;points=[[0,0.5],[1,0.5]];portConstraint=eastwest;whiteSpace=wrap;html=1;" vertex="1" parent="wpxUMyZ37g3ErgdPcbbq-70">
          <mxGeometry y="26" width="290" height="234" as="geometry" />
        </mxCell>
        <mxCell id="wpxUMyZ37g3ErgdPcbbq-72" value="" style="line;strokeWidth=1;fillColor=none;align=left;verticalAlign=middle;spacingTop=-1;spacingLeft=3;spacingRight=3;rotatable=0;labelPosition=right;points=[];portConstraint=eastwest;strokeColor=inherit;" vertex="1" parent="wpxUMyZ37g3ErgdPcbbq-70">
          <mxGeometry y="260" width="290" height="8" as="geometry" />
        </mxCell>
        <mxCell id="wpxUMyZ37g3ErgdPcbbq-73" value="+&amp;nbsp;__init__(self, Any): void&lt;br style=&quot;border-color: var(--border-color);&quot;&gt;+ __repr__(self): str" style="text;strokeColor=none;fillColor=none;align=left;verticalAlign=top;spacingLeft=4;spacingRight=4;overflow=hidden;rotatable=0;points=[[0,0.5],[1,0.5]];portConstraint=eastwest;whiteSpace=wrap;html=1;" vertex="1" parent="wpxUMyZ37g3ErgdPcbbq-70">
          <mxGeometry y="268" width="290" height="42" as="geometry" />
        </mxCell>
        <mxCell id="wpxUMyZ37g3ErgdPcbbq-74" value="&lt;div&gt;AsnSequenceOf/AsnSetOf&lt;/div&gt;&lt;div&gt;&lt;br&gt;&lt;/div&gt;" style="swimlane;fontStyle=1;align=center;verticalAlign=top;childLayout=stackLayout;horizontal=1;startSize=26;horizontalStack=0;resizeParent=1;resizeParentMax=0;resizeLast=0;collapsible=1;marginBottom=0;whiteSpace=wrap;html=1;" vertex="1" parent="UHv7QVIfAV6pWBTmiAMZ-1">
          <mxGeometry x="559" y="370" width="200" height="230" as="geometry" />
        </mxCell>
        <mxCell id="wpxUMyZ37g3ErgdPcbbq-75" value="&lt;div&gt;_leafType: str&lt;/div&gt;&lt;div&gt;&lt;span style=&quot;background-color: initial;&quot;&gt;_lineno: str&lt;/span&gt;&lt;br&gt;&lt;/div&gt;&lt;div&gt;validOptions: list[str]&lt;br&gt;&lt;/div&gt;&lt;div&gt;&lt;span style=&quot;background-color: initial;&quot;&gt;_name: str&lt;/span&gt;&lt;br&gt;&lt;/div&gt;&lt;div&gt;&lt;span style=&quot;background-color: initial;&quot;&gt;_range: int [min, max]&lt;br&gt;&lt;/span&gt;&lt;/div&gt;&lt;div&gt;&lt;div&gt;&lt;span style=&quot;background-color: initial;&quot;&gt;_default: str&lt;/span&gt;&lt;/div&gt;&lt;div&gt;&lt;span style=&quot;background-color: initial;&quot;&gt;_containedType: str&lt;/span&gt;&lt;br&gt;&lt;/div&gt;&lt;div&gt;&lt;span style=&quot;background-color: initial;&quot;&gt;&lt;div&gt;value: string,&amp;nbsp;&lt;/div&gt;&lt;div&gt;&amp;nbsp; &amp;nbsp; &amp;nbsp; &amp;nbsp;AsnBasicNode,&lt;/div&gt;&lt;div&gt;&amp;nbsp; &amp;nbsp; &amp;nbsp; &amp;nbsp;AsnEnumerated&lt;/div&gt;&lt;/span&gt;&lt;/div&gt;&lt;div&gt;&lt;br&gt;&lt;/div&gt;&lt;/div&gt;" style="text;strokeColor=none;fillColor=none;align=left;verticalAlign=top;spacingLeft=4;spacingRight=4;overflow=hidden;rotatable=0;points=[[0,0.5],[1,0.5]];portConstraint=eastwest;whiteSpace=wrap;html=1;" vertex="1" parent="wpxUMyZ37g3ErgdPcbbq-74">
          <mxGeometry y="26" width="200" height="154" as="geometry" />
        </mxCell>
        <mxCell id="wpxUMyZ37g3ErgdPcbbq-76" value="" style="line;strokeWidth=1;fillColor=none;align=left;verticalAlign=middle;spacingTop=-1;spacingLeft=3;spacingRight=3;rotatable=0;labelPosition=right;points=[];portConstraint=eastwest;strokeColor=inherit;" vertex="1" parent="wpxUMyZ37g3ErgdPcbbq-74">
          <mxGeometry y="180" width="200" height="8" as="geometry" />
        </mxCell>
        <mxCell id="wpxUMyZ37g3ErgdPcbbq-77" value="+&amp;nbsp;__init__(self, Any): void&lt;br style=&quot;border-color: var(--border-color);&quot;&gt;+ __repr__(self): str" style="text;strokeColor=none;fillColor=none;align=left;verticalAlign=top;spacingLeft=4;spacingRight=4;overflow=hidden;rotatable=0;points=[[0,0.5],[1,0.5]];portConstraint=eastwest;whiteSpace=wrap;html=1;" vertex="1" parent="wpxUMyZ37g3ErgdPcbbq-74">
          <mxGeometry y="188" width="200" height="42" as="geometry" />
        </mxCell>
        <mxCell id="wpxUMyZ37g3ErgdPcbbq-79" value="" style="endArrow=open;html=1;endSize=12;startArrow=diamondThin;startSize=14;startFill=1;edgeStyle=orthogonalEdgeStyle;align=left;verticalAlign=bottom;rounded=0;entryX=0.5;entryY=0;entryDx=0;entryDy=0;exitX=1;exitY=0.25;exitDx=0;exitDy=0;" edge="1" parent="UHv7QVIfAV6pWBTmiAMZ-1" source="ILBQJs9dg9_0bJsbloBf-24" target="wpxUMyZ37g3ErgdPcbbq-74">
          <mxGeometry x="0.5455" y="70" relative="1" as="geometry">
            <mxPoint x="510" y="210" as="sourcePoint" />
            <mxPoint x="655" y="315" as="targetPoint" />
            <mxPoint x="-70" y="-70" as="offset" />
          </mxGeometry>
        </mxCell>
        <mxCell id="wpxUMyZ37g3ErgdPcbbq-82" value="" style="endArrow=open;html=1;endSize=12;startArrow=diamondThin;startSize=14;startFill=1;edgeStyle=orthogonalEdgeStyle;align=left;verticalAlign=bottom;rounded=0;exitX=0;exitY=0.25;exitDx=0;exitDy=0;entryX=0.5;entryY=0;entryDx=0;entryDy=0;" edge="1" parent="UHv7QVIfAV6pWBTmiAMZ-1" source="ILBQJs9dg9_0bJsbloBf-24" target="wpxUMyZ37g3ErgdPcbbq-66">
          <mxGeometry x="0.5455" y="70" relative="1" as="geometry">
            <mxPoint x="212" y="323" as="sourcePoint" />
            <mxPoint x="-90" y="370" as="targetPoint" />
            <mxPoint x="-70" y="-70" as="offset" />
          </mxGeometry>
        </mxCell>
        <mxCell id="wpxUMyZ37g3ErgdPcbbq-83" value="" style="endArrow=open;html=1;endSize=12;startArrow=diamondThin;startSize=14;startFill=1;edgeStyle=orthogonalEdgeStyle;align=left;verticalAlign=bottom;rounded=0;entryX=0.25;entryY=0;entryDx=0;entryDy=0;exitX=0.409;exitY=1.027;exitDx=0;exitDy=0;exitPerimeter=0;" edge="1" parent="UHv7QVIfAV6pWBTmiAMZ-1" source="ILBQJs9dg9_0bJsbloBf-26" target="wpxUMyZ37g3ErgdPcbbq-70">
          <mxGeometry x="0.5455" y="70" relative="1" as="geometry">
            <mxPoint x="474" y="580" as="sourcePoint" />
            <mxPoint x="439.9999999999998" y="920" as="targetPoint" />
            <mxPoint x="-70" y="-70" as="offset" />
          </mxGeometry>
        </mxCell>
      </root>
    </mxGraphModel>
  </diagram>
  <diagram id="g2kriLlxmHBdJMhaniqM" name="GeneralDiagram">
    <mxGraphModel dx="1050" dy="549" grid="1" gridSize="10" guides="1" tooltips="1" connect="1" arrows="1" fold="1" page="1" pageScale="1" pageWidth="1169" pageHeight="827" math="0" shadow="0">
      <root>
        <mxCell id="0" />
        <mxCell id="1" parent="0" />
        <mxCell id="Ru3hOiSrXTx5fESI3rH4-1" value="asn2datamodel" style="swimlane;fontStyle=1;align=center;verticalAlign=top;childLayout=stackLayout;horizontal=1;startSize=26;horizontalStack=0;resizeParent=1;resizeParentMax=0;resizeLast=0;collapsible=1;marginBottom=0;whiteSpace=wrap;html=1;" parent="1" vertex="1">
          <mxGeometry x="300" y="410" width="160" height="140" as="geometry" />
        </mxCell>
        <mxCell id="Ru3hOiSrXTx5fESI3rH4-2" value="uniqueFilesNames: List[str]&lt;br&gt;filesSelected: List[str]" style="text;strokeColor=none;fillColor=none;align=left;verticalAlign=top;spacingLeft=4;spacingRight=4;overflow=hidden;rotatable=0;points=[[0,0.5],[1,0.5]];portConstraint=eastwest;whiteSpace=wrap;html=1;" parent="Ru3hOiSrXTx5fESI3rH4-1" vertex="1">
          <mxGeometry y="26" width="160" height="64" as="geometry" />
        </mxCell>
        <mxCell id="Ru3hOiSrXTx5fESI3rH4-3" value="" style="line;strokeWidth=1;fillColor=none;align=left;verticalAlign=middle;spacingTop=-1;spacingLeft=3;spacingRight=3;rotatable=0;labelPosition=right;points=[];portConstraint=eastwest;strokeColor=inherit;" parent="Ru3hOiSrXTx5fESI3rH4-1" vertex="1">
          <mxGeometry y="90" width="160" height="8" as="geometry" />
        </mxCell>
        <mxCell id="Ru3hOiSrXTx5fESI3rH4-4" value="+ getFiles(str): List(str)&lt;br&gt;+ main()" style="text;strokeColor=none;fillColor=none;align=left;verticalAlign=top;spacingLeft=4;spacingRight=4;overflow=hidden;rotatable=0;points=[[0,0.5],[1,0.5]];portConstraint=eastwest;whiteSpace=wrap;html=1;" parent="Ru3hOiSrXTx5fESI3rH4-1" vertex="1">
          <mxGeometry y="98" width="160" height="42" as="geometry" />
        </mxCell>
        <mxCell id="FhSOBqMiLXBttCdwWkgY-1" value="asnParser" style="shape=module;align=left;spacingLeft=20;align=center;verticalAlign=top;whiteSpace=wrap;html=1;" parent="1" vertex="1">
          <mxGeometry x="80" y="320" width="90" height="50" as="geometry" />
        </mxCell>
        <mxCell id="FhSOBqMiLXBttCdwWkgY-2" value="asnAST&lt;br&gt;" style="shape=module;align=left;spacingLeft=20;align=center;verticalAlign=top;whiteSpace=wrap;html=1;" parent="1" vertex="1">
          <mxGeometry x="660" y="320" width="100" height="50" as="geometry" />
        </mxCell>
        <mxCell id="FhSOBqMiLXBttCdwWkgY-4" value="cleanUpNodes" style="swimlane;fontStyle=1;align=center;verticalAlign=top;childLayout=stackLayout;horizontal=1;startSize=26;horizontalStack=0;resizeParent=1;resizeParentMax=0;resizeLast=0;collapsible=1;marginBottom=0;whiteSpace=wrap;html=1;" parent="1" vertex="1">
          <mxGeometry x="10" y="70" width="340" height="130" as="geometry" />
        </mxCell>
        <mxCell id="FhSOBqMiLXBttCdwWkgY-5" value="SetOfBadTypenames: Set[str]" style="text;strokeColor=none;fillColor=none;align=left;verticalAlign=top;spacingLeft=4;spacingRight=4;overflow=hidden;rotatable=0;points=[[0,0.5],[1,0.5]];portConstraint=eastwest;whiteSpace=wrap;html=1;" parent="FhSOBqMiLXBttCdwWkgY-4" vertex="1">
          <mxGeometry y="26" width="340" height="24" as="geometry" />
        </mxCell>
        <mxCell id="FhSOBqMiLXBttCdwWkgY-6" value="" style="line;strokeWidth=1;fillColor=none;align=left;verticalAlign=middle;spacingTop=-1;spacingLeft=3;spacingRight=3;rotatable=0;labelPosition=right;points=[];portConstraint=eastwest;strokeColor=inherit;" parent="FhSOBqMiLXBttCdwWkgY-4" vertex="1">
          <mxGeometry y="50" width="340" height="8" as="geometry" />
        </mxCell>
        <mxCell id="FhSOBqMiLXBttCdwWkgY-7" value="&lt;div&gt;+ DiscoverBadTypes(str): SetOfBadTypenames&lt;/div&gt;&lt;div&gt;+ CheckNodeForMetaMember(Union[AsnNode, str]): bool&lt;/div&gt;" style="text;strokeColor=none;fillColor=none;align=left;verticalAlign=top;spacingLeft=4;spacingRight=4;overflow=hidden;rotatable=0;points=[[0,0.5],[1,0.5]];portConstraint=eastwest;whiteSpace=wrap;html=1;" parent="FhSOBqMiLXBttCdwWkgY-4" vertex="1">
          <mxGeometry y="58" width="340" height="72" as="geometry" />
        </mxCell>
        <mxCell id="FhSOBqMiLXBttCdwWkgY-8" value="verify" style="swimlane;fontStyle=1;align=center;verticalAlign=top;childLayout=stackLayout;horizontal=1;startSize=26;horizontalStack=0;resizeParent=1;resizeParentMax=0;resizeLast=0;collapsible=1;marginBottom=0;whiteSpace=wrap;html=1;" parent="1" vertex="1">
          <mxGeometry x="410" y="100" width="370" height="100" as="geometry" />
        </mxCell>
        <mxCell id="FhSOBqMiLXBttCdwWkgY-10" value="" style="line;strokeWidth=1;fillColor=none;align=left;verticalAlign=middle;spacingTop=-1;spacingLeft=3;spacingRight=3;rotatable=0;labelPosition=right;points=[];portConstraint=eastwest;strokeColor=inherit;" parent="FhSOBqMiLXBttCdwWkgY-8" vertex="1">
          <mxGeometry y="26" width="370" height="34" as="geometry" />
        </mxCell>
        <mxCell id="FhSOBqMiLXBttCdwWkgY-11" value="&lt;div&gt;+ VerifyRanges(Union[str, AsnNode], Dict[str, AsnNode],str): void&lt;/div&gt;&lt;div&gt;+ VerifyNodeRangeAndCreateTableConditions(AsnNode,str): void&lt;/div&gt;" style="text;strokeColor=none;fillColor=none;align=left;verticalAlign=top;spacingLeft=4;spacingRight=4;overflow=hidden;rotatable=0;points=[[0,0.5],[1,0.5]];portConstraint=eastwest;whiteSpace=wrap;html=1;" parent="FhSOBqMiLXBttCdwWkgY-8" vertex="1">
          <mxGeometry y="60" width="370" height="40" as="geometry" />
        </mxCell>
        <mxCell id="Wpcb1-pnv2QyvyzrMRxp-11" value="cql_mapper" style="swimlane;fontStyle=1;align=center;verticalAlign=top;childLayout=stackLayout;horizontal=1;startSize=26;horizontalStack=0;resizeParent=1;resizeParentMax=0;resizeLast=0;collapsible=1;marginBottom=0;whiteSpace=wrap;html=1;" parent="1" vertex="1">
          <mxGeometry x="300" y="580" width="160" height="140" as="geometry" />
        </mxCell>
        <mxCell id="Wpcb1-pnv2QyvyzrMRxp-12" value="&lt;div&gt;createCQL: str&lt;/div&gt;&lt;div&gt;createTable: str&lt;/div&gt;&lt;div&gt;execute: str&lt;/div&gt;&lt;div&gt;tableType: str&lt;/div&gt;" style="text;strokeColor=none;fillColor=none;align=left;verticalAlign=top;spacingLeft=4;spacingRight=4;overflow=hidden;rotatable=0;points=[[0,0.5],[1,0.5]];portConstraint=eastwest;whiteSpace=wrap;html=1;" parent="Wpcb1-pnv2QyvyzrMRxp-11" vertex="1">
          <mxGeometry y="26" width="160" height="64" as="geometry" />
        </mxCell>
        <mxCell id="Wpcb1-pnv2QyvyzrMRxp-13" value="" style="line;strokeWidth=1;fillColor=none;align=left;verticalAlign=middle;spacingTop=-1;spacingLeft=3;spacingRight=3;rotatable=0;labelPosition=right;points=[];portConstraint=eastwest;strokeColor=inherit;" parent="Wpcb1-pnv2QyvyzrMRxp-11" vertex="1">
          <mxGeometry y="90" width="160" height="8" as="geometry" />
        </mxCell>
        <mxCell id="Wpcb1-pnv2QyvyzrMRxp-14" value="## en proceso ####" style="text;strokeColor=none;fillColor=none;align=left;verticalAlign=top;spacingLeft=4;spacingRight=4;overflow=hidden;rotatable=0;points=[[0,0.5],[1,0.5]];portConstraint=eastwest;whiteSpace=wrap;html=1;" parent="Wpcb1-pnv2QyvyzrMRxp-11" vertex="1">
          <mxGeometry y="98" width="160" height="42" as="geometry" />
        </mxCell>
        <mxCell id="sW7LdjkO_6IfW3Wf0rBj-5" value="" style="endArrow=open;endFill=1;endSize=12;html=1;rounded=0;entryX=0.5;entryY=0;entryDx=0;entryDy=0;exitX=0.503;exitY=1.071;exitDx=0;exitDy=0;exitPerimeter=0;" parent="1" source="Ru3hOiSrXTx5fESI3rH4-4" target="Wpcb1-pnv2QyvyzrMRxp-11" edge="1">
          <mxGeometry width="160" relative="1" as="geometry">
            <mxPoint x="340" y="460" as="sourcePoint" />
            <mxPoint x="500" y="460" as="targetPoint" />
          </mxGeometry>
        </mxCell>
        <mxCell id="sW7LdjkO_6IfW3Wf0rBj-6" value="" style="endArrow=open;endFill=1;endSize=12;html=1;rounded=0;exitX=1;exitY=0;exitDx=0;exitDy=0;entryX=0.128;entryY=1.015;entryDx=0;entryDy=0;entryPerimeter=0;" parent="1" source="FhSOBqMiLXBttCdwWkgY-1" target="FhSOBqMiLXBttCdwWkgY-11" edge="1">
          <mxGeometry width="160" relative="1" as="geometry">
            <mxPoint x="110" y="250" as="sourcePoint" />
            <mxPoint x="270" y="250" as="targetPoint" />
          </mxGeometry>
        </mxCell>
        <mxCell id="sW7LdjkO_6IfW3Wf0rBj-7" value="" style="endArrow=open;endFill=1;endSize=12;html=1;rounded=0;entryX=0.167;entryY=1.031;entryDx=0;entryDy=0;entryPerimeter=0;exitX=0.25;exitY=0;exitDx=0;exitDy=0;" parent="1" source="FhSOBqMiLXBttCdwWkgY-1" target="FhSOBqMiLXBttCdwWkgY-7" edge="1">
          <mxGeometry width="160" relative="1" as="geometry">
            <mxPoint x="170" y="290" as="sourcePoint" />
            <mxPoint x="190" y="230" as="targetPoint" />
          </mxGeometry>
        </mxCell>
        <mxCell id="sW7LdjkO_6IfW3Wf0rBj-8" value="" style="endArrow=open;endFill=1;endSize=12;html=1;rounded=0;entryX=0.847;entryY=1.053;entryDx=0;entryDy=0;entryPerimeter=0;exitX=0;exitY=0;exitDx=10;exitDy=0;exitPerimeter=0;" parent="1" source="FhSOBqMiLXBttCdwWkgY-2" target="FhSOBqMiLXBttCdwWkgY-7" edge="1">
          <mxGeometry width="160" relative="1" as="geometry">
            <mxPoint x="576" y="370" as="sourcePoint" />
            <mxPoint x="540" y="242" as="targetPoint" />
          </mxGeometry>
        </mxCell>
        <mxCell id="sW7LdjkO_6IfW3Wf0rBj-9" value="" style="endArrow=open;endFill=1;endSize=12;html=1;rounded=0;entryX=0.742;entryY=1.135;entryDx=0;entryDy=0;entryPerimeter=0;exitX=0.75;exitY=0;exitDx=0;exitDy=0;" parent="1" source="FhSOBqMiLXBttCdwWkgY-2" target="FhSOBqMiLXBttCdwWkgY-11" edge="1">
          <mxGeometry width="160" relative="1" as="geometry">
            <mxPoint x="716" y="368" as="sourcePoint" />
            <mxPoint x="680" y="240" as="targetPoint" />
          </mxGeometry>
        </mxCell>
        <mxCell id="sW7LdjkO_6IfW3Wf0rBj-10" value="" style="endArrow=open;endFill=1;endSize=12;html=1;rounded=0;entryX=0.5;entryY=1;entryDx=0;entryDy=0;exitX=0;exitY=0.5;exitDx=0;exitDy=0;" parent="1" source="Wpcb1-pnv2QyvyzrMRxp-12" target="FhSOBqMiLXBttCdwWkgY-1" edge="1">
          <mxGeometry width="160" relative="1" as="geometry">
            <mxPoint x="226" y="608" as="sourcePoint" />
            <mxPoint x="190" y="480" as="targetPoint" />
          </mxGeometry>
        </mxCell>
        <mxCell id="sW7LdjkO_6IfW3Wf0rBj-11" value="" style="endArrow=open;endFill=1;endSize=12;html=1;rounded=0;entryX=0.736;entryY=1.053;entryDx=0;entryDy=0;entryPerimeter=0;exitX=0.25;exitY=0;exitDx=0;exitDy=0;" parent="1" source="Ru3hOiSrXTx5fESI3rH4-1" target="FhSOBqMiLXBttCdwWkgY-7" edge="1">
          <mxGeometry width="160" relative="1" as="geometry">
            <mxPoint x="512" y="340" as="sourcePoint" />
            <mxPoint x="170" y="214" as="targetPoint" />
          </mxGeometry>
        </mxCell>
        <mxCell id="sW7LdjkO_6IfW3Wf0rBj-12" value="" style="endArrow=open;endFill=1;endSize=12;html=1;rounded=0;entryX=0.467;entryY=1.075;entryDx=0;entryDy=0;entryPerimeter=0;exitX=0.75;exitY=0;exitDx=0;exitDy=0;" parent="1" source="Ru3hOiSrXTx5fESI3rH4-1" target="FhSOBqMiLXBttCdwWkgY-11" edge="1">
          <mxGeometry width="160" relative="1" as="geometry">
            <mxPoint x="610" y="423" as="sourcePoint" />
            <mxPoint x="490" y="287" as="targetPoint" />
          </mxGeometry>
        </mxCell>
        <mxCell id="sW7LdjkO_6IfW3Wf0rBj-13" value="" style="endArrow=open;endFill=1;endSize=12;html=1;rounded=0;entryX=0.5;entryY=1;entryDx=0;entryDy=0;exitX=1;exitY=0.5;exitDx=0;exitDy=0;" parent="1" source="Wpcb1-pnv2QyvyzrMRxp-12" target="FhSOBqMiLXBttCdwWkgY-2" edge="1">
          <mxGeometry width="160" relative="1" as="geometry">
            <mxPoint x="530" y="597" as="sourcePoint" />
            <mxPoint x="683" y="450" as="targetPoint" />
          </mxGeometry>
        </mxCell>
        <mxCell id="sW7LdjkO_6IfW3Wf0rBj-14" value="" style="endArrow=open;endFill=1;endSize=12;html=1;rounded=0;exitX=0.995;exitY=0.122;exitDx=0;exitDy=0;exitPerimeter=0;entryX=0.068;entryY=0.492;entryDx=0;entryDy=0;entryPerimeter=0;" parent="1" source="Ru3hOiSrXTx5fESI3rH4-2" target="FhSOBqMiLXBttCdwWkgY-2" edge="1">
          <mxGeometry width="160" relative="1" as="geometry">
            <mxPoint x="500" y="364.5" as="sourcePoint" />
            <mxPoint x="620" y="364.5" as="targetPoint" />
          </mxGeometry>
        </mxCell>
        <mxCell id="sW7LdjkO_6IfW3Wf0rBj-15" value="" style="endArrow=open;endFill=1;endSize=12;html=1;rounded=0;entryX=1;entryY=0.5;entryDx=0;entryDy=0;exitX=0;exitY=0.222;exitDx=0;exitDy=0;exitPerimeter=0;" parent="1" source="Ru3hOiSrXTx5fESI3rH4-2" target="FhSOBqMiLXBttCdwWkgY-1" edge="1">
          <mxGeometry width="160" relative="1" as="geometry">
            <mxPoint x="270" y="370" as="sourcePoint" />
            <mxPoint x="180" y="370" as="targetPoint" />
          </mxGeometry>
        </mxCell>
        <mxCell id="krQXCqZtQS7mER3Eiu-Z-1" value="" style="endArrow=open;endFill=1;endSize=12;html=1;rounded=0;exitX=1;exitY=0.25;exitDx=0;exitDy=0;entryX=0.028;entryY=0.18;entryDx=0;entryDy=0;entryPerimeter=0;" parent="1" source="FhSOBqMiLXBttCdwWkgY-1" target="FhSOBqMiLXBttCdwWkgY-2" edge="1">
          <mxGeometry width="160" relative="1" as="geometry">
            <mxPoint x="377" y="359" as="sourcePoint" />
            <mxPoint x="585" y="260" as="targetPoint" />
          </mxGeometry>
        </mxCell>
      </root>
    </mxGraphModel>
  </diagram>
</mxfile>
